<?xml version="1.0" encoding="UTF-8" standalone="no"?>
<svg width="364px" height="391px" viewBox="0 0 364 391" version="1.1" xmlns="http://www.w3.org/2000/svg" xmlns:xlink="http://www.w3.org/1999/xlink" xmlns:sketch="http://www.bohemiancoding.com/sketch/ns">
    <!-- Generator: Sketch 3.3.3 (12081) - http://www.bohemiancoding.com/sketch -->
    <title>icon_512x512</title>
    <desc>Created with Sketch.</desc>
    <defs></defs>
    <g id="Page-1" stroke="none" stroke-width="1" fill="none" fill-rule="evenodd" sketch:type="MSPage">
        <g id="icon_512x512" sketch:type="MSArtboardGroup" transform="translate(-14.000000, -14.000000)">
            <g id="handle" sketch:type="MSLayerGroup" transform="translate(91.156448, 320.071940) rotate(40.000000) translate(-91.156448, -320.071940) translate(51.156448, 215.071940)">
                <path d="M33.0533415,22.0308346 C33.0533415,22.0308346 27.7196851,8.37038108 32.4144617,3.89610739 C37.1092383,-0.578166297 47.2613192,-0.0276875665 51.8367474,4.12964215 C56.4121756,8.28697186 51.3842781,21.1324791 51.3842781,21.1324791" id="Path-5" fill="#3A7B8D" sketch:type="MSShapeGroup"></path>
                <path d="M21.6753843,37.9666153 L24.2666846,20.7342664 L60.4449025,20.7342664 L63.445157,37.0024249 L21.6753843,37.9666153 Z" id="Path-4" fill="#FFD34E" sketch:type="MSShapeGroup"></path>
                <path d="M21.3267387,37.3448211 C21.3267387,37.3448211 -10.894575,130.854523 4.15097889,181.625025 C4.15097889,181.625025 24.5436443,210.069302 41.4695379,209.133212 C58.3954316,208.197122 74.9108434,177.711633 74.9108441,177.711637 C89.9315085,146.514436 63.4163483,36.827415 63.4163483,36.827415 L21.3267387,37.3448211 Z" id="Path-3" fill="#5A97A7" sketch:type="MSShapeGroup"></path>
                <path d="M22.0273295,38.9530846 C22.0273295,38.9530846 11.1235712,71.528963 5.35175993,108.400129 C1.40997991,133.580791 0.343860975,160.620873 4.87855178,181.223568 C8.92148889,188.421192 25.7902253,205.250642 33.8222282,205.249925 C37.0327979,205.249639 15.507206,184.592524 15.3680652,167.872006 C14.9622423,119.104347 27.0346883,38.9530846 27.0346883,38.9530846 L22.0273295,38.9530846 Z" id="Path-3-Copy" fill="#3A7B8D" sketch:type="MSShapeGroup"></path>
            </g>
            <path d="M244.516235,279.373017 C317.755806,279.373017 377.12821,220.000613 377.12821,146.761042 C377.12821,73.5214703 317.755806,14.1490667 244.516235,14.1490667 C171.276663,14.1490667 111.90426,73.5214703 111.90426,146.761042 C111.90426,220.000613 171.276663,279.373017 244.516235,279.373017 Z M245.418357,261.330572 C308.195133,261.330572 359.085764,210.43994 359.085764,147.663164 C359.085764,84.8863885 308.195133,33.9957568 245.418357,33.9957568 C182.641581,33.9957568 131.75095,84.8863885 131.75095,147.663164 C131.75095,210.43994 182.641581,261.330572 245.418357,261.330572 Z" id="Oval-4" fill="#5A97A7" sketch:type="MSShapeGroup"></path>
            <path d="M134,248.810041 L133.558683,246.834423 L122.303331,256.794444 L127.751153,261.191141 C127.751153,261.191141 128.156029,260.191392 128.21275,258.281412 C128.244907,257.198573 129.377483,255.408439 130.202248,254.012782 C131.106534,252.482562 133.088611,250.043593 134,248.810041 Z" id="Path-19" fill="#DCB642" sketch:type="MSShapeGroup"></path>
            <path d="M148.590833,239.316857 C148.590833,239.316857 147.4127,238.977727 144.58404,242.879106 C141.755379,246.780485 141.020564,250.421636 141.020564,250.421636 L143.431808,252.791886 C143.431808,252.791886 142.886216,250.940803 143.431808,249.591828 C144.160054,247.791241 146.093605,246.263557 146.739024,245.231416 C147.867981,243.426009 150.625355,241.515465 150.625355,241.515465 L148.590833,239.316857 Z" id="Path-20" fill="#2D5E6C" sketch:type="MSShapeGroup"></path>
            <g id="Rectangle-1-+-Oval-3-Copy-2" sketch:type="MSLayerGroup" transform="translate(176.000000, 93.000000)">
                <path d="M68.3323584,12.7297861 L68.3023893,12.699817 L68.2485715,12.7536348 L68.2485598,12.7536241 C52.4507821,-1.75118907 27.8526876,-1.32389574 12.5115743,14.0172176 C-3.24319056,29.7719825 -3.26903217,55.2896617 12.4538555,71.0125493 C12.8771672,71.4358611 13.3075788,71.8477571 13.7447119,72.2482408 L68.1869516,126.690481 L124.161568,70.7158646 C124.612405,70.3037091 125.05617,69.8794916 125.492449,69.4432125 C141.247214,53.6884476 141.273056,28.1707684 125.550168,12.4478807 C109.827281,-3.27500697 84.3096013,-3.24916537 68.5548364,12.5055995 C68.4803253,12.5801107 68.4061659,12.6548402 68.3323584,12.7297861 Z" id="Rectangle-1" fill="#DD593E" sketch:type="MSShapeGroup"></path>
                <path d="M103.507426,35.3411637 C118.886957,35.3411637 128.266361,53.159418 128.266361,37.8110053 C128.266361,22.4625926 115.798788,10.0202457 100.419257,10.0202457 C85.0397264,10.0202457 68.9589079,18.6297789 82.9783158,29.8777339 C96.9977237,41.1256889 88.1278954,35.3411637 103.507426,35.3411637 Z" id="Oval-3-Copy-2" fill="#FF7C61" sketch:type="MSShapeGroup"></path>
            </g>
        </g>
    </g>
</svg>