<?xml version="1.0" encoding="UTF-8" standalone="no"?>
<svg width="205px" height="220px" viewBox="0 0 205 220" version="1.1" xmlns="http://www.w3.org/2000/svg" xmlns:xlink="http://www.w3.org/1999/xlink" xmlns:sketch="http://www.bohemiancoding.com/sketch/ns">
    <!-- Generator: Sketch 3.3.3 (12081) - http://www.bohemiancoding.com/sketch -->
    <title>icon_256x256</title>
    <desc>Created with Sketch.</desc>
    <defs></defs>
    <g id="Page-1" stroke="none" stroke-width="1" fill="none" fill-rule="evenodd" sketch:type="MSPage">
        <g id="icon_256x256" sketch:type="MSArtboardGroup" transform="translate(-13.000000, -12.000000)">
            <g id="handle" sketch:type="MSLayerGroup" transform="translate(56.964181, 183.350933) rotate(40.000000) translate(-56.964181, -183.350933) translate(34.464181, 124.850933)">
                <path d="M18.9411054,12.7739989 C18.9411054,12.7739989 15.9763005,5.20922756 18.585973,2.73150181 C21.1956456,0.253776064 26.8388548,0.558615558 29.3821855,2.86082673 C31.9255162,5.1630379 29.1306727,12.2765151 29.1306727,12.2765151" id="Path-5" stroke="#645853" stroke-width="2" fill="#3A7B8D" sketch:type="MSShapeGroup"></path>
                <path d="M13.6834809,22.359545 L13.1908172,12.4007667 L34.167177,12.0559962 L32.7428796,22.350125 L13.6834809,22.359545 Z" id="Path-4" stroke="#645853" stroke-width="2" fill="#EDECB8" sketch:type="MSShapeGroup"></path>
                <path d="M12.422671,21.2544499 C12.422671,21.2544499 -5.48810205,73.037468 2.87522859,101.152731 C2.87522859,101.152731 14.2108434,116.904364 23.6193933,116.385984 C33.0279433,115.867604 42.2083198,98.9856056 42.2083202,98.9856076 C50.5578156,81.7094834 35.8189064,20.9679251 35.8189064,20.9679251 L12.422671,21.2544499 Z" id="Path-3" stroke="#645853" stroke-width="2" fill="#5A97A7" sketch:type="MSShapeGroup"></path>
                <path d="M12.8121064,22.1450606 C12.8121064,22.1450606 -2.93197646,72.8151522 3.27966253,100.930415 C5.52699886,104.916255 14.9037769,114.235927 19.3685043,114.23553 C21.1531549,114.235371 9.18778331,102.796047 9.11043952,93.5366995 C8.88485583,66.5305546 15.5955332,22.1450606 15.5955332,22.1450606 L12.8121064,22.1450606 Z" id="Path-3-Copy" fill="#3A7B8D" sketch:type="MSShapeGroup"></path>
                <path d="M35.2841649,21.9719729 C35.2841649,21.9719729 22.9395063,78.5861277 28.353239,96.634334 C28.0983818,96.9698138 35.2799088,112.040645 43.4103202,114.257953 C45.4824879,114.82307 35.3741045,95.9996083 35.2841653,86.7402605 C35.0218452,59.7341156 39.2064065,21.9719729 39.2064065,21.9719729 L35.2841649,21.9719729 Z" id="Path-3-Copy-2" fill="#8ABCCA" sketch:type="MSShapeGroup" transform="translate(35.335320, 68.121185) scale(-1, 1) translate(-35.335320, -68.121185) "></path>
            </g>
            <g id="Rectangle-1-Copy-+-Oval-3-Copy-2-+-Oval-10" sketch:type="MSLayerGroup" transform="translate(79.535819, 25.149067)">
                <g id="Oval-13-+-Oval-11" transform="translate(0.464181, 0.850933)" sketch:type="MSShapeGroup">
                    <path d="M63.5358186,127.149067 C98.3297578,127.149067 126.535819,98.9430059 126.535819,64.1490667 C126.535819,29.3551274 98.3297578,1.14906666 63.5358186,1.14906666 C28.7418793,1.14906666 0.535818585,29.3551274 0.535818585,64.1490667 C0.535818585,98.9430059 28.7418793,127.149067 63.5358186,127.149067 Z" id="Oval-13" fill="#EDECB8"></path>
                    <path d="M124.76787,78.0309564 C125.923451,73.2594561 126.535819,68.2757744 126.535819,63.1490667 C126.535819,28.3551274 98.3297578,0.149066665 63.5358186,0.149066665 C28.7418793,0.149066665 0.535818585,28.3551274 0.535818585,63.1490667 C0.535818585,68.2757744 1.14818641,73.2594561 2.30376698,78.0309564 C8.99088038,50.4192392 33.8685871,29.9128462 63.5358186,29.9128462 C93.20305,29.9128462 118.080757,50.4192392 124.76787,78.0309564 Z" id="Oval-11" fill="#CAC882"></path>
                </g>
                <g id="Rectangle-1-Copy-+-Oval-3-Copy-2" transform="translate(13.000000, 6.000000)" sketch:type="MSShapeGroup">
                    <path d="M61.3855699,85 L14.6484375,85 L14.6484375,37.6347305 L14.6709041,37.6347305 L14.6709045,37.6347205 C15.2119625,25.0414051 25.4573863,15 38.0170037,15 C50.576621,15 60.8220449,25.0414051 61.3631032,37.6347305 L61.3855699,37.6347305 C61.454433,37.6350336 61.5233672,37.6347305 61.5923713,37.6347305 C74.498474,37.6347305 84.9609375,48.2378073 84.9609375,61.3173653 C84.9609375,74.3969233 74.498474,85 61.5923713,85 C61.5233672,85 61.454433,84.9996969 61.3855699,84.9990919 Z" id="Rectangle-1-Copy" stroke="#645853" stroke-width="2" fill="#DD593E" transform="translate(49.804688, 50.000000) rotate(-45.000000) translate(-49.804688, -50.000000) "></path>
                    <path d="M70.0172435,46.8832844 C78.8273842,46.8832844 84.2003615,57.3566072 84.2003615,48.335023 C84.2003615,39.3134389 77.0583313,32 68.2481906,32 C59.4380498,32 50.2261774,37.0605642 58.2571739,43.6719561 C66.2881704,50.2833481 61.2071028,46.8832844 70.0172435,46.8832844 Z" id="Oval-3-Copy-2" fill="#FF7C61"></path>
                </g>
            </g>
            <path d="M142.035819,161.149067 C182.628748,161.149067 215.535819,128.241996 215.535819,87.6490667 C215.535819,47.0561376 182.628748,14.1490667 142.035819,14.1490667 C101.442889,14.1490667 68.5358186,47.0561376 68.5358186,87.6490667 C68.5358186,128.241996 101.442889,161.149067 142.035819,161.149067 Z M142.535819,151.149067 C177.329758,151.149067 205.535819,122.943006 205.535819,88.1490667 C205.535819,53.3551274 177.329758,25.1490667 142.535819,25.1490667 C107.741879,25.1490667 79.5358186,53.3551274 79.5358186,88.1490667 C79.5358186,122.943006 107.741879,151.149067 142.535819,151.149067 Z" id="Oval-4" stroke="#645853" stroke-width="2" fill="#5A97A7" sketch:type="MSShapeGroup"></path>
        </g>
    </g>
</svg>