<?xml version="1.0" encoding="UTF-8" standalone="no"?>
<svg width="222px" height="256px" viewBox="0 0 222 256" version="1.1" xmlns="http://www.w3.org/2000/svg" xmlns:xlink="http://www.w3.org/1999/xlink" xmlns:sketch="http://www.bohemiancoding.com/sketch/ns">
    <!-- Generator: Sketch 3.3.3 (12081) - http://www.bohemiancoding.com/sketch -->
    <title>search-results</title>
    <desc>Created with Sketch.</desc>
    <defs></defs>
    <g id="Page-1" stroke="none" stroke-width="1" fill="none" fill-rule="evenodd" sketch:type="MSPage">
        <g id="search-results" sketch:type="MSArtboardGroup">
            <g id="Group-Copy-3" sketch:type="MSLayerGroup" transform="translate(20.856746, 17.856746)">
                <rect id="Rectangle-28-Copy" fill="#ECECEC" sketch:type="MSShapeGroup" x="0" y="0" width="83.6933941" height="60.82898"></rect>
                <g id="Rectangle-1-+-Oval-3-Copy-4" transform="translate(3.426985, 3.426985)" sketch:type="MSShapeGroup">
                    <path d="M10.1135665,5.64303044 L10.1148254,5.64428934 L5.51018918,10.2489255 L0.900952959,5.63968931 L0.904313606,5.63632866 L0.904313606,5.63632866 C-0.266798707,4.35749403 -0.234203667,2.37175646 1.00282544,1.13472736 C2.23950106,-0.101948266 4.22445731,-0.134878066 5.50333027,1.03521186 C5.51082939,1.02756603 5.51837385,1.01994805 5.52596364,1.01235825 C6.79749882,-0.25917692 8.86009441,-0.258147167 10.1328998,1.01465827 C11.4057053,2.28746371 11.406735,4.3500593 10.1351999,5.62159448 C10.1280139,5.62878044 10.1208027,5.63592576 10.1135665,5.64303044 Z" id="Rectangle-1" fill="#DD593E"></path>
                    <path d="M8.35387477,2.8609519 C9.59512555,2.8609519 10.3521183,4.30338229 10.3521183,3.0608915 C10.3521183,1.81840071 9.34588568,0.811162907 8.1046349,0.811162907 C6.86338412,0.811162907 5.56553382,1.50812525 6.69701184,2.41867417 C7.82848987,3.32922308 7.11262399,2.8609519 8.35387477,2.8609519 Z" id="Oval-3-Copy-2" fill="#FF7C61"></path>
                </g>
                <g id="Rectangle-1-+-Oval-3-Copy-7" transform="translate(17.134924, 3.426985)" sketch:type="MSShapeGroup">
                    <path d="M10.1135665,5.64303044 L10.1148254,5.64428934 L5.51018918,10.2489255 L0.900952959,5.63968931 L0.904313606,5.63632866 L0.904313606,5.63632866 C-0.266798707,4.35749403 -0.234203667,2.37175646 1.00282544,1.13472736 C2.23950106,-0.101948266 4.22445731,-0.134878066 5.50333027,1.03521186 C5.51082939,1.02756603 5.51837385,1.01994805 5.52596364,1.01235825 C6.79749882,-0.25917692 8.86009441,-0.258147167 10.1328998,1.01465827 C11.4057053,2.28746371 11.406735,4.3500593 10.1351999,5.62159448 C10.1280139,5.62878044 10.1208027,5.63592576 10.1135665,5.64303044 Z" id="Rectangle-1" fill="#DD593E"></path>
                    <path d="M8.35387477,2.8609519 C9.59512555,2.8609519 10.3521183,4.30338229 10.3521183,3.0608915 C10.3521183,1.81840071 9.34588568,0.811162907 8.1046349,0.811162907 C6.86338412,0.811162907 5.56553382,1.50812525 6.69701184,2.41867417 C7.82848987,3.32922308 7.11262399,2.8609519 8.35387477,2.8609519 Z" id="Oval-3-Copy-2" fill="#FF7C61"></path>
                </g>
                <g id="Rectangle-1-+-Oval-3-Copy-8" transform="translate(30.842863, 3.426985)" sketch:type="MSShapeGroup">
                    <path d="M10.1135665,5.64303044 L10.1148254,5.64428934 L5.51018918,10.2489255 L0.900952959,5.63968931 L0.904313606,5.63632866 L0.904313606,5.63632866 C-0.266798707,4.35749403 -0.234203667,2.37175646 1.00282544,1.13472736 C2.23950106,-0.101948266 4.22445731,-0.134878066 5.50333027,1.03521186 C5.51082939,1.02756603 5.51837385,1.01994805 5.52596364,1.01235825 C6.79749882,-0.25917692 8.86009441,-0.258147167 10.1328998,1.01465827 C11.4057053,2.28746371 11.406735,4.3500593 10.1351999,5.62159448 C10.1280139,5.62878044 10.1208027,5.63592576 10.1135665,5.64303044 Z" id="Rectangle-1" fill="#DD593E"></path>
                    <path d="M8.35387477,2.8609519 C9.59512555,2.8609519 10.3521183,4.30338229 10.3521183,3.0608915 C10.3521183,1.81840071 9.34588568,0.811162907 8.1046349,0.811162907 C6.86338412,0.811162907 5.56553382,1.50812525 6.69701184,2.41867417 C7.82848987,3.32922308 7.11262399,2.8609519 8.35387477,2.8609519 Z" id="Oval-3-Copy-2" fill="#FF7C61"></path>
                </g>
                <path d="M55.6885028,55.6885028 L77.9639039,55.6885028 L77.9639039,29.9861169 L52.261518,29.9861169 L52.261518,48.8345332 L5.14047718,48.8345332 L5.14047718,55.6885028 L55.6885028,55.6885028 Z" id="Rectangle-46-Copy-5" fill="#D8D8D8" sketch:type="MSShapeGroup"></path>
            </g>
            <g id="Rectangle-28-Copy-3-+-Rectangle-46-Copy-2" sketch:type="MSLayerGroup" transform="translate(123.666290, 17.000000)">
                <rect id="Rectangle-28-Copy-3" fill="#ECECEC" sketch:type="MSShapeGroup" x="0.133866593" y="0.428373099" width="83.6933941" height="60.82898"></rect>
                <path d="M66.8262034,49.6912794 L66.8262034,30.8428631 L41.1238175,30.8428631 L41.1238175,49.6912794 L5.14047718,49.6912794 L5.14047718,56.545249 L78.8206501,56.545249 L78.8206501,49.6912794 L66.8262034,49.6912794 Z" id="Rectangle-46-Copy-2" fill="#D8D8D8" sketch:type="MSShapeGroup"></path>
            </g>
            <g id="Group-Copy-4" sketch:type="MSLayerGroup" transform="translate(20.856746, 97.390889)">
                <rect id="Rectangle-28-Copy-2" fill="#ECECEC" sketch:type="MSShapeGroup" x="0" y="1" width="83.6933941" height="60.82898"></rect>
                <path d="M30.8428631,49.8345332 L30.8428631,30.9861169 L5.14047718,30.9861169 L5.14047718,53.261518 L5.14047718,56.6885028 L59.1154876,56.6885028 L59.1154876,49.8345332 L30.8428631,49.8345332 Z" id="Rectangle-46-Copy-4" fill="#D8D8D8" sketch:type="MSShapeGroup"></path>
                <g id="Rectangle-1-+-Oval-3-Copy-9" transform="translate(17.134924, 5.283731)" sketch:type="MSShapeGroup">
                    <path d="M10.1135665,5.64303044 L10.1148254,5.64428934 L5.51018918,10.2489255 L0.900952959,5.63968931 L0.904313606,5.63632866 L0.904313606,5.63632866 C-0.266798707,4.35749403 -0.234203667,2.37175646 1.00282544,1.13472736 C2.23950106,-0.101948266 4.22445731,-0.134878066 5.50333027,1.03521186 C5.51082939,1.02756603 5.51837385,1.01994805 5.52596364,1.01235825 C6.79749882,-0.25917692 8.86009441,-0.258147167 10.1328998,1.01465827 C11.4057053,2.28746371 11.406735,4.3500593 10.1351999,5.62159448 C10.1280139,5.62878044 10.1208027,5.63592576 10.1135665,5.64303044 Z" id="Rectangle-1" fill="#DD593E"></path>
                    <path d="M8.35387477,2.8609519 C9.59512555,2.8609519 10.3521183,4.30338229 10.3521183,3.0608915 C10.3521183,1.81840071 9.34588568,0.811162907 8.1046349,0.811162907 C6.86338412,0.811162907 5.56553382,1.50812525 6.69701184,2.41867417 C7.82848987,3.32922308 7.11262399,2.8609519 8.35387477,2.8609519 Z" id="Oval-3-Copy-2" fill="#FF7C61"></path>
                </g>
                <g id="Rectangle-1-+-Oval-3-Copy-10" transform="translate(30.842863, 5.283731)" sketch:type="MSShapeGroup">
                    <path d="M10.1135665,5.64303044 L10.1148254,5.64428934 L5.51018918,10.2489255 L0.900952959,5.63968931 L0.904313606,5.63632866 L0.904313606,5.63632866 C-0.266798707,4.35749403 -0.234203667,2.37175646 1.00282544,1.13472736 C2.23950106,-0.101948266 4.22445731,-0.134878066 5.50333027,1.03521186 C5.51082939,1.02756603 5.51837385,1.01994805 5.52596364,1.01235825 C6.79749882,-0.25917692 8.86009441,-0.258147167 10.1328998,1.01465827 C11.4057053,2.28746371 11.406735,4.3500593 10.1351999,5.62159448 C10.1280139,5.62878044 10.1208027,5.63592576 10.1135665,5.64303044 Z" id="Rectangle-1" fill="#DD593E"></path>
                    <path d="M8.35387477,2.8609519 C9.59512555,2.8609519 10.3521183,4.30338229 10.3521183,3.0608915 C10.3521183,1.81840071 9.34588568,0.811162907 8.1046349,0.811162907 C6.86338412,0.811162907 5.56553382,1.50812525 6.69701184,2.41867417 C7.82848987,3.32922308 7.11262399,2.8609519 8.35387477,2.8609519 Z" id="Oval-3-Copy-2" fill="#FF7C61"></path>
                </g>
                <g id="Rectangle-1-+-Oval-3-Copy-14" transform="translate(3.426985, 5.283731)" sketch:type="MSShapeGroup">
                    <path d="M10.1135665,5.64303044 L10.1148254,5.64428934 L5.51018918,10.2489255 L0.900952959,5.63968931 L0.904313606,5.63632866 L0.904313606,5.63632866 C-0.266798707,4.35749403 -0.234203667,2.37175646 1.00282544,1.13472736 C2.23950106,-0.101948266 4.22445731,-0.134878066 5.50333027,1.03521186 C5.51082939,1.02756603 5.51837385,1.01994805 5.52596364,1.01235825 C6.79749882,-0.25917692 8.86009441,-0.258147167 10.1328998,1.01465827 C11.4057053,2.28746371 11.406735,4.3500593 10.1351999,5.62159448 C10.1280139,5.62878044 10.1208027,5.63592576 10.1135665,5.64303044 Z" id="Rectangle-1" fill="#DD593E"></path>
                    <path d="M8.35387477,2.8609519 C9.59512555,2.8609519 10.3521183,4.30338229 10.3521183,3.0608915 C10.3521183,1.81840071 9.34588568,0.811162907 8.1046349,0.811162907 C6.86338412,0.811162907 5.56553382,1.50812525 6.69701184,2.41867417 C7.82848987,3.32922308 7.11262399,2.8609519 8.35387477,2.8609519 Z" id="Oval-3-Copy-2" fill="#FF7C61"></path>
                </g>
                <g id="Rectangle-1-+-Oval-3-Copy-13" transform="translate(44.550802, 5.000000)" sketch:type="MSShapeGroup">
                    <path d="M10.3926779,5.79876526 L10.3939716,5.80005891 L5.66225789,10.5317726 L0.925817214,5.79533192 L0.929270607,5.79187853 L0.929270607,5.79187853 C-0.274161745,4.47775097 -0.240667156,2.43721155 1.03050115,1.16604325 C2.3013062,-0.104761806 4.34104273,-0.138600394 5.65520969,1.06378136 C5.66291576,1.05592452 5.67066843,1.0480963 5.67846769,1.04029704 C6.98509434,-0.266329615 9.10461289,-0.265271443 10.4125449,1.04266053 C11.7204768,2.35059251 11.721535,4.47011106 10.4149084,5.77673771 C10.4075241,5.78412199 10.4001138,5.79146451 10.3926779,5.79876526 Z" id="Rectangle-1" fill="#DD593E"></path>
                    <path d="M8.58442274,2.93990768 C9.85992922,2.93990768 10.6378132,4.42214587 10.6378132,3.14536515 C10.6378132,1.86858444 9.60381089,0.833549161 8.32830441,0.833549161 C7.05279793,0.833549161 5.71912991,1.54974608 6.88183416,2.48542408 C8.0445384,3.42110207 7.30891625,2.93990768 8.58442274,2.93990768 Z" id="Oval-3-Copy-2" fill="#FF7C61"></path>
                </g>
            </g>
            <g id="Group-Copy" sketch:type="MSLayerGroup" transform="translate(80.666290, 66.390889)">
                <g id="Rectangle-28-Copy-4-+-Rectangle-46-Copy-3" transform="translate(0.211268, 1.000000)" sketch:type="MSShapeGroup">
                    <rect id="Rectangle-28-Copy-4" fill="#ECECEC" x="0" y="0" width="126.345683" height="91.82898"></rect>
                    <path d="M99.5891755,84.0687845 L118.989664,84.0687845 L118.989664,45.267807 L80.1886868,45.267807 L80.1886868,73.7218572 L7.76019549,73.7218572 L7.76019549,84.0687845 L99.5891755,84.0687845 Z" id="Rectangle-46-Copy-3" fill="#D8D8D8"></path>
                </g>
            </g>
            <g id="Group-Copy-2" sketch:type="MSLayerGroup" transform="translate(20.000000, 178.068285)">
                <rect id="Rectangle-28" fill="#ECECEC" sketch:type="MSShapeGroup" x="0" y="0" width="83.6933941" height="60.82898"></rect>
                <g id="Rectangle-1-+-Oval-3-Copy-3" transform="translate(3.426985, 4.283731)" sketch:type="MSShapeGroup">
                    <path d="M10.1135665,5.64303044 L10.1148254,5.64428934 L5.51018918,10.2489255 L0.900952959,5.63968931 L0.904313606,5.63632866 L0.904313606,5.63632866 C-0.266798707,4.35749403 -0.234203667,2.37175646 1.00282544,1.13472736 C2.23950106,-0.101948266 4.22445731,-0.134878066 5.50333027,1.03521186 C5.51082939,1.02756603 5.51837385,1.01994805 5.52596364,1.01235825 C6.79749882,-0.25917692 8.86009441,-0.258147167 10.1328998,1.01465827 C11.4057053,2.28746371 11.406735,4.3500593 10.1351999,5.62159448 C10.1280139,5.62878044 10.1208027,5.63592576 10.1135665,5.64303044 Z" id="Rectangle-1" fill="#DD593E"></path>
                    <path d="M8.35387477,2.8609519 C9.59512555,2.8609519 10.3521183,4.30338229 10.3521183,3.0608915 C10.3521183,1.81840071 9.34588568,0.811162907 8.1046349,0.811162907 C6.86338412,0.811162907 5.56553382,1.50812525 6.69701184,2.41867417 C7.82848987,3.32922308 7.11262399,2.8609519 8.35387477,2.8609519 Z" id="Oval-3-Copy-2" fill="#FF7C61"></path>
                </g>
                <g id="Rectangle-1-+-Oval-3-Copy-5" transform="translate(17.134924, 4.283731)" sketch:type="MSShapeGroup">
                    <path d="M10.1135665,5.64303044 L10.1148254,5.64428934 L5.51018918,10.2489255 L0.900952959,5.63968931 L0.904313606,5.63632866 L0.904313606,5.63632866 C-0.266798707,4.35749403 -0.234203667,2.37175646 1.00282544,1.13472736 C2.23950106,-0.101948266 4.22445731,-0.134878066 5.50333027,1.03521186 C5.51082939,1.02756603 5.51837385,1.01994805 5.52596364,1.01235825 C6.79749882,-0.25917692 8.86009441,-0.258147167 10.1328998,1.01465827 C11.4057053,2.28746371 11.406735,4.3500593 10.1351999,5.62159448 C10.1280139,5.62878044 10.1208027,5.63592576 10.1135665,5.64303044 Z" id="Rectangle-1" fill="#DD593E"></path>
                    <path d="M8.35387477,2.8609519 C9.59512555,2.8609519 10.3521183,4.30338229 10.3521183,3.0608915 C10.3521183,1.81840071 9.34588568,0.811162907 8.1046349,0.811162907 C6.86338412,0.811162907 5.56553382,1.50812525 6.69701184,2.41867417 C7.82848987,3.32922308 7.11262399,2.8609519 8.35387477,2.8609519 Z" id="Oval-3-Copy-2" fill="#FF7C61"></path>
                </g>
                <path d="M64.2559648,56.545249 L77.1071577,56.545249 L77.1071577,30.8428631 L51.4047718,30.8428631 L51.4047718,49.6912794 L3.42698479,49.6912794 L3.42698479,56.545249 L64.2559648,56.545249 Z" id="Rectangle-46" fill="#D8D8D8" sketch:type="MSShapeGroup"></path>
            </g>
            <g id="Rectangle-28-Copy-5-+-Rectangle-1-+-Oval-3-Copy-6-+-Rectangle-46-Copy" sketch:type="MSLayerGroup" transform="translate(123.666290, 178.068285)">
                <rect id="Rectangle-28-Copy-5" fill="#ECECEC" sketch:type="MSShapeGroup" x="0" y="0" width="83.6933941" height="60.82898"></rect>
                <g id="Rectangle-1-+-Oval-3-Copy-6" transform="translate(5.140477, 4.283731)" sketch:type="MSShapeGroup">
                    <path d="M10.1135665,5.64303044 L10.1148254,5.64428934 L5.51018918,10.2489255 L0.900952959,5.63968931 L0.904313606,5.63632866 L0.904313606,5.63632866 C-0.266798707,4.35749403 -0.234203667,2.37175646 1.00282544,1.13472736 C2.23950106,-0.101948266 4.22445731,-0.134878066 5.50333027,1.03521186 C5.51082939,1.02756603 5.51837385,1.01994805 5.52596364,1.01235825 C6.79749882,-0.25917692 8.86009441,-0.258147167 10.1328998,1.01465827 C11.4057053,2.28746371 11.406735,4.3500593 10.1351999,5.62159448 C10.1280139,5.62878044 10.1208027,5.63592576 10.1135665,5.64303044 Z" id="Rectangle-1" fill="#DD593E"></path>
                    <path d="M8.35387477,2.8609519 C9.59512555,2.8609519 10.3521183,4.30338229 10.3521183,3.0608915 C10.3521183,1.81840071 9.34588568,0.811162907 8.1046349,0.811162907 C6.86338412,0.811162907 5.56553382,1.50812525 6.69701184,2.41867417 C7.82848987,3.32922308 7.11262399,2.8609519 8.35387477,2.8609519 Z" id="Oval-3-Copy-2" fill="#FF7C61"></path>
                </g>
                <path d="M44.5508022,50.5480256 L44.5508022,30.8428631 L18.8484163,30.8428631 L18.8484163,50.5480256 L5.14047718,50.5480256 L5.14047718,57.4019952 L78.8206501,57.4019952 L78.8206501,50.5480256 L44.5508022,50.5480256 Z" id="Rectangle-46-Copy" fill="#D8D8D8" sketch:type="MSShapeGroup"></path>
            </g>
            <g id="Group" sketch:type="MSLayerGroup" transform="translate(-4.000000, 35.000000)">
                <g id="handle" transform="translate(55.049784, 168.969497) rotate(40.000000) translate(-55.049784, -168.969497) translate(33.023810, 111.003395)" sketch:type="MSShapeGroup">
                    <path d="M18.200801,12.1623009 C18.200801,12.1623009 15.2638266,4.62093677 17.8490023,2.15087769 C20.4341779,-0.319181394 26.0244147,-0.0152851457 28.5438713,2.27980244 C31.0633279,4.57489003 28.2947194,11.6663565 28.2947194,11.6663565" id="Path-5" fill="#3A7B8D"></path>
                    <path d="M11.9355363,20.9597779 L13.3624341,11.4465199 L33.2839463,11.4465199 L34.9360345,20.4274888 L11.9355363,20.9597779 Z" id="Path-4" fill="#FFD34E"></path>
                    <path d="M11.7435548,20.6165114 C11.7435548,20.6165114 -5.99909064,72.2393007 2.28573383,100.267568 C2.28573383,100.267568 13.5149418,115.970462 22.8351741,115.453686 C32.1554065,114.93691 41.2496073,98.1071486 41.2496077,98.1071506 C49.5207267,80.8844828 34.920171,20.3308732 34.920171,20.3308732 L11.7435548,20.6165114 Z" id="Path-3" fill="#5A97A7"></path>
                    <path d="M12.1293347,21.5043663 C12.1293347,21.5043663 6.12518723,39.4881442 2.94694313,59.8431706 C0.776404524,73.7443592 0.189346823,88.6720559 2.68637137,100.04594 C4.91261206,104.019447 14.2013708,113.310282 18.624188,113.309886 C20.3920861,113.309728 8.53903292,101.9058 8.46241514,92.6751027 C8.238949,65.7525211 14.8866336,21.5043663 14.8866336,21.5043663 L12.1293347,21.5043663 Z" id="Path-3-Copy" fill="#3A7B8D"></path>
                </g>
                <path d="M139.497251,146.501327 C179.826574,146.501327 212.519949,113.72431 212.519949,73.29181 C212.519949,32.8593105 179.826574,0.0822934614 139.497251,0.0822934614 C99.1679289,0.0822934614 66.4745533,32.8593105 66.4745533,73.29181 C66.4745533,113.72431 99.1679289,146.501327 139.497251,146.501327 Z M139.994004,136.540848 C174.561995,136.540848 202.584888,108.446262 202.584888,73.789834 C202.584888,39.1334058 174.561995,11.0388198 139.994004,11.0388198 C105.426014,11.0388198 77.4031204,39.1334058 77.4031204,73.789834 C77.4031204,108.446262 105.426014,136.540848 139.994004,136.540848 Z" id="Oval-4" fill="#5A97A7" sketch:type="MSShapeGroup"></path>
                <path d="M78.6415584,129.628788 L78.3985477,128.538132 L72.2007951,134.036642 L75.2006351,136.463874 C75.2006351,136.463874 75.4235797,135.911955 75.4548129,134.857535 C75.4725201,134.259745 76.0961726,133.271487 76.550329,132.501003 C77.0482731,131.656233 78.1397026,130.30978 78.6415584,129.628788 Z" id="Path-19" fill="#DCB642" sketch:type="MSShapeGroup"></path>
                <path d="M86.6759911,124.387999 C86.6759911,124.387999 86.0272532,124.200779 84.4696531,126.354567 C82.912053,128.508355 82.5074276,130.518482 82.5074276,130.518482 L83.8351772,131.826998 C83.8351772,131.826998 83.5347474,130.805092 83.8351772,130.06038 C84.2361857,129.066351 85.300894,128.222981 85.6562936,127.653179 C86.2779534,126.656489 87.7962995,125.601758 87.7962995,125.601758 L86.6759911,124.387999 Z" id="Path-20" fill="#2D5E6C" sketch:type="MSShapeGroup"></path>
                <g id="Rectangle-1-+-Oval-3-Copy-2" transform="translate(101.768831, 43.612591)" sketch:type="MSShapeGroup">
                    <path d="M68.9985938,38.4792573 L69.0034317,38.4840951 L37.5872064,69.9003204 L6.15433531,38.4674493 L6.17358803,38.4481966 L6.17358803,38.4481966 C-1.81611405,29.7270908 -1.59172549,16.1794287 6.84938454,7.73831866 C15.289332,-0.701628771 28.8344249,-0.92711797 37.5556587,7.05922133 C37.6066555,7.00723071 37.6579594,6.95542873 37.7095704,6.90381765 C46.3849215,-1.7715334 60.4541709,-1.76780711 69.1341186,6.91214055 C77.8140663,15.5920882 77.8177926,29.6613377 69.1424415,38.3366887 C69.0946553,38.3844749 69.0467055,38.4319978 68.9985938,38.4792573 Z" id="Rectangle-1" fill="#DD593E"></path>
                    <path d="M56.996297,19.5103761 C65.4650256,19.5103761 70.6297883,29.3470879 70.6297883,20.8738722 C70.6297883,12.4006565 63.7645273,5.53175794 55.2957987,5.53175794 C46.8270701,5.53175794 37.9721779,10.2847206 45.6919557,16.4942454 C53.4117336,22.7037702 48.5275684,19.5103761 56.996297,19.5103761 Z" id="Oval-3-Copy-2" fill="#FF7C61"></path>
                </g>
            </g>
        </g>
    </g>
</svg>