<?xml version="1.0" encoding="UTF-8" standalone="no"?>
<svg width="800px" height="755px" viewBox="0 0 800 755" version="1.1" xmlns="http://www.w3.org/2000/svg" xmlns:xlink="http://www.w3.org/1999/xlink" xmlns:sketch="http://www.bohemiancoding.com/sketch/ns">
    <!-- Generator: Sketch 3.3.3 (12081) - http://www.bohemiancoding.com/sketch -->
    <title>stats</title>
    <desc>Created with Sketch.</desc>
    <defs>
        <rect id="path-1" x="0" y="0" width="412" height="470" rx="8"></rect>
        <path id="path-2" d="M0,7.99644475 C0,3.58013026 3.58795905,0 7.99200899,0 L356.670662,0 L409,51.7215691 L409,194.000014 C409,198.418284 405.417566,202 400.990642,202 L8.00935754,202 C3.58591151,202 0,198.41895 0,194.003555 L0,7.99644475 Z"></path>
    </defs>
    <g id="Page-1" stroke="none" stroke-width="1" fill="none" fill-rule="evenodd" sketch:type="MSPage">
        <g id="stats" sketch:type="MSArtboardGroup">
            <rect id="Rectangle-36-Copy-2" fill="#FFD34E" sketch:type="MSShapeGroup" x="532" y="600" width="145" height="38" rx="8"></rect>
            <g id="Group" sketch:type="MSLayerGroup" transform="translate(18.000000, 16.000000)">
                <g id="Rectangle-12">
                    <use stroke="#5A97A7" stroke-width="14" stroke-linejoin="round" sketch:type="MSShapeGroup" xlink:href="#path-1"></use>
                    <use stroke="none" xlink:href="#path-1"></use>
                </g>
                <circle id="Oval-37" stroke="#555555" stroke-width="12" opacity="0.5" fill="#D8D8D8" sketch:type="MSShapeGroup" cx="107" cy="114" r="58"></circle>
                <rect id="Rectangle-13" fill="#D8D8D8" sketch:type="MSShapeGroup" x="195" y="75" width="168" height="34"></rect>
                <rect id="Rectangle-13-Copy" fill="#D8D8D8" sketch:type="MSShapeGroup" x="195" y="127" width="168" height="34"></rect>
                <rect id="Rectangle-15" fill="#D8D8D8" sketch:type="MSShapeGroup" x="49" y="312" width="314" height="116"></rect>
                <rect id="Rectangle-16" fill="#FFD34E" sketch:type="MSShapeGroup" x="49" y="215" width="314" height="16"></rect>
                <rect id="Rectangle-16-Copy" fill="#D8D8D8" sketch:type="MSShapeGroup" x="49" y="245" width="314" height="16"></rect>
                <rect id="Rectangle-16-Copy-2" fill="#D8D8D8" sketch:type="MSShapeGroup" x="49" y="275" width="314" height="16"></rect>
            </g>
            <g id="Rectangle-1-+-Oval-3-Copy-2" sketch:type="MSLayerGroup" transform="translate(457.000000, 32.000000)">
                <path d="M68.3323584,12.7297861 L68.3023893,12.699817 L68.2485715,12.7536348 L68.2485598,12.7536241 C52.4507821,-1.75118907 27.8526876,-1.32389574 12.5115743,14.0172176 C-3.24319056,29.7719825 -3.26903217,55.2896617 12.4538555,71.0125493 C12.8771672,71.4358611 13.3075788,71.8477571 13.7447119,72.2482408 L68.1869516,126.690481 L124.161568,70.7158646 C124.612405,70.3037091 125.05617,69.8794916 125.492449,69.4432125 C141.247214,53.6884476 141.273056,28.1707684 125.550168,12.4478807 C109.827281,-3.27500697 84.3096013,-3.24916537 68.5548364,12.5055995 C68.4803253,12.5801107 68.4061659,12.6548402 68.3323584,12.7297861 Z" id="Rectangle-1" fill="#DD593E" sketch:type="MSShapeGroup"></path>
                <path d="M103.507426,35.3411637 C118.886957,35.3411637 128.266361,53.159418 128.266361,37.8110053 C128.266361,22.4625926 115.798788,10.0202457 100.419257,10.0202457 C85.0397264,10.0202457 68.9589079,18.6297789 82.9783158,29.8777339 C96.9977237,41.1256889 88.1278954,35.3411637 103.507426,35.3411637 Z" id="Oval-3-Copy-2" fill="#FF7C61" sketch:type="MSShapeGroup"></path>
            </g>
            <g id="Group" sketch:type="MSLayerGroup" transform="translate(63.000000, 532.000000)">
                <g id="Rectangle-19">
                    <use stroke="#5A97A7" stroke-width="14" stroke-linejoin="round" sketch:type="MSShapeGroup" xlink:href="#path-2"></use>
                    <use stroke="none" xlink:href="#path-2"></use>
                </g>
                <rect id="Rectangle-15-Copy" fill="#ECECEC" sketch:type="MSShapeGroup" x="43" y="44" width="314" height="116"></rect>
                <rect id="Rectangle-13-Copy-2" fill="#D8D8D8" sketch:type="MSShapeGroup" x="200" y="111" width="136" height="34"></rect>
                <rect id="Rectangle-21-Copy-2" fill="#AAAAAA" sketch:type="MSShapeGroup" x="121" y="111" width="18" height="34"></rect>
                <rect id="Rectangle-21-Copy-3" fill="#AAAAAA" sketch:type="MSShapeGroup" x="151" y="90" width="18" height="55"></rect>
                <rect id="Rectangle-21" fill="#FFD34E" sketch:type="MSShapeGroup" x="91" y="66" width="18" height="79"></rect>
                <rect id="Rectangle-21-Copy" fill="#AAAAAA" sketch:type="MSShapeGroup" x="62" y="90" width="18" height="55"></rect>
            </g>
            <rect id="Rectangle-27" stroke="#5A97A7" stroke-width="14" sketch:type="MSShapeGroup" x="472" y="204" width="287" height="328" rx="8"></rect>
            <rect id="Rectangle-28" fill="#ECECEC" sketch:type="MSShapeGroup" x="507" y="241" width="97.6875" height="71"></rect>
            <g id="Rectangle-1-+-Oval-3-Copy-3" sketch:type="MSLayerGroup" transform="translate(511.000000, 246.000000)">
                <path d="M11.8046237,6.58658358 L11.8060931,6.58805299 L6.43153037,11.9626157 L1.05159843,6.5826838 L1.055521,6.57876123 L1.055521,6.57876123 C-0.311409269,5.08609673 -0.273364117,2.76833031 1.17050469,1.3244615 C2.6139609,-0.11899471 4.93081536,-0.157430598 6.4235246,1.20830634 C6.43227762,1.19938207 6.44108356,1.19049031 6.44994242,1.18163145 C7.93408694,-0.302513068 10.3415626,-0.301311133 11.8271898,1.18431605 C13.3128169,2.66994323 13.3140189,5.07741886 11.8298744,6.56156338 C11.8214869,6.56995089 11.8130699,6.57829096 11.8046237,6.58658358 Z" id="Rectangle-1" fill="#DD593E" sketch:type="MSShapeGroup"></path>
                <path d="M9.75069956,3.33932256 C11.1994959,3.33932256 12.083063,5.02293714 12.083063,3.57269342 C12.083063,2.1224497 10.9085815,0.946794874 9.45978509,0.946794874 C8.01098872,0.946794874 6.496129,1.76029407 7.81679786,2.82309297 C9.13746672,3.88589187 8.30190319,3.33932256 9.75069956,3.33932256 Z" id="Oval-3-Copy-2" fill="#FF7C61" sketch:type="MSShapeGroup"></path>
            </g>
            <rect id="Rectangle-28-Copy-5" fill="#ECECEC" sketch:type="MSShapeGroup" x="627" y="241" width="97.6875" height="71"></rect>
            <g id="Rectangle-1-+-Oval-3-Copy-5" sketch:type="MSLayerGroup" transform="translate(527.000000, 246.000000)">
                <path d="M11.8046237,6.58658358 L11.8060931,6.58805299 L6.43153037,11.9626157 L1.05159843,6.5826838 L1.055521,6.57876123 L1.055521,6.57876123 C-0.311409269,5.08609673 -0.273364117,2.76833031 1.17050469,1.3244615 C2.6139609,-0.11899471 4.93081536,-0.157430598 6.4235246,1.20830634 C6.43227762,1.19938207 6.44108356,1.19049031 6.44994242,1.18163145 C7.93408694,-0.302513068 10.3415626,-0.301311133 11.8271898,1.18431605 C13.3128169,2.66994323 13.3140189,5.07741886 11.8298744,6.56156338 C11.8214869,6.56995089 11.8130699,6.57829096 11.8046237,6.58658358 Z" id="Rectangle-1" fill="#DD593E" sketch:type="MSShapeGroup"></path>
                <path d="M9.75069956,3.33932256 C11.1994959,3.33932256 12.083063,5.02293714 12.083063,3.57269342 C12.083063,2.1224497 10.9085815,0.946794874 9.45978509,0.946794874 C8.01098872,0.946794874 6.496129,1.76029407 7.81679786,2.82309297 C9.13746672,3.88589187 8.30190319,3.33932256 9.75069956,3.33932256 Z" id="Oval-3-Copy-2" fill="#FF7C61" sketch:type="MSShapeGroup"></path>
            </g>
            <g id="Rectangle-1-+-Oval-3-Copy-6" sketch:type="MSLayerGroup" transform="translate(633.000000, 246.000000)">
                <path d="M11.8046237,6.58658358 L11.8060931,6.58805299 L6.43153037,11.9626157 L1.05159843,6.5826838 L1.055521,6.57876123 L1.055521,6.57876123 C-0.311409269,5.08609673 -0.273364117,2.76833031 1.17050469,1.3244615 C2.6139609,-0.11899471 4.93081536,-0.157430598 6.4235246,1.20830634 C6.43227762,1.19938207 6.44108356,1.19049031 6.44994242,1.18163145 C7.93408694,-0.302513068 10.3415626,-0.301311133 11.8271898,1.18431605 C13.3128169,2.66994323 13.3140189,5.07741886 11.8298744,6.56156338 C11.8214869,6.56995089 11.8130699,6.57829096 11.8046237,6.58658358 Z" id="Rectangle-1" fill="#DD593E" sketch:type="MSShapeGroup"></path>
                <path d="M9.75069956,3.33932256 C11.1994959,3.33932256 12.083063,5.02293714 12.083063,3.57269342 C12.083063,2.1224497 10.9085815,0.946794874 9.45978509,0.946794874 C8.01098872,0.946794874 6.496129,1.76029407 7.81679786,2.82309297 C9.13746672,3.88589187 8.30190319,3.33932256 9.75069956,3.33932256 Z" id="Oval-3-Copy-2" fill="#FF7C61" sketch:type="MSShapeGroup"></path>
            </g>
            <rect id="Rectangle-28-Copy" fill="#ECECEC" sketch:type="MSShapeGroup" x="507" y="331" width="97.6875" height="71"></rect>
            <g id="Rectangle-1-+-Oval-3-Copy-4" sketch:type="MSLayerGroup" transform="translate(511.000000, 335.000000)">
                <path d="M11.8046237,6.58658358 L11.8060931,6.58805299 L6.43153037,11.9626157 L1.05159843,6.5826838 L1.055521,6.57876123 L1.055521,6.57876123 C-0.311409269,5.08609673 -0.273364117,2.76833031 1.17050469,1.3244615 C2.6139609,-0.11899471 4.93081536,-0.157430598 6.4235246,1.20830634 C6.43227762,1.19938207 6.44108356,1.19049031 6.44994242,1.18163145 C7.93408694,-0.302513068 10.3415626,-0.301311133 11.8271898,1.18431605 C13.3128169,2.66994323 13.3140189,5.07741886 11.8298744,6.56156338 C11.8214869,6.56995089 11.8130699,6.57829096 11.8046237,6.58658358 Z" id="Rectangle-1" fill="#DD593E" sketch:type="MSShapeGroup"></path>
                <path d="M9.75069956,3.33932256 C11.1994959,3.33932256 12.083063,5.02293714 12.083063,3.57269342 C12.083063,2.1224497 10.9085815,0.946794874 9.45978509,0.946794874 C8.01098872,0.946794874 6.496129,1.76029407 7.81679786,2.82309297 C9.13746672,3.88589187 8.30190319,3.33932256 9.75069956,3.33932256 Z" id="Oval-3-Copy-2" fill="#FF7C61" sketch:type="MSShapeGroup"></path>
            </g>
            <g id="Rectangle-1-+-Oval-3-Copy-7" sketch:type="MSLayerGroup" transform="translate(527.000000, 335.000000)">
                <path d="M11.8046237,6.58658358 L11.8060931,6.58805299 L6.43153037,11.9626157 L1.05159843,6.5826838 L1.055521,6.57876123 L1.055521,6.57876123 C-0.311409269,5.08609673 -0.273364117,2.76833031 1.17050469,1.3244615 C2.6139609,-0.11899471 4.93081536,-0.157430598 6.4235246,1.20830634 C6.43227762,1.19938207 6.44108356,1.19049031 6.44994242,1.18163145 C7.93408694,-0.302513068 10.3415626,-0.301311133 11.8271898,1.18431605 C13.3128169,2.66994323 13.3140189,5.07741886 11.8298744,6.56156338 C11.8214869,6.56995089 11.8130699,6.57829096 11.8046237,6.58658358 Z" id="Rectangle-1" fill="#DD593E" sketch:type="MSShapeGroup"></path>
                <path d="M9.75069956,3.33932256 C11.1994959,3.33932256 12.083063,5.02293714 12.083063,3.57269342 C12.083063,2.1224497 10.9085815,0.946794874 9.45978509,0.946794874 C8.01098872,0.946794874 6.496129,1.76029407 7.81679786,2.82309297 C9.13746672,3.88589187 8.30190319,3.33932256 9.75069956,3.33932256 Z" id="Oval-3-Copy-2" fill="#FF7C61" sketch:type="MSShapeGroup"></path>
            </g>
            <g id="Rectangle-1-+-Oval-3-Copy-8" sketch:type="MSLayerGroup" transform="translate(543.000000, 335.000000)">
                <path d="M11.8046237,6.58658358 L11.8060931,6.58805299 L6.43153037,11.9626157 L1.05159843,6.5826838 L1.055521,6.57876123 L1.055521,6.57876123 C-0.311409269,5.08609673 -0.273364117,2.76833031 1.17050469,1.3244615 C2.6139609,-0.11899471 4.93081536,-0.157430598 6.4235246,1.20830634 C6.43227762,1.19938207 6.44108356,1.19049031 6.44994242,1.18163145 C7.93408694,-0.302513068 10.3415626,-0.301311133 11.8271898,1.18431605 C13.3128169,2.66994323 13.3140189,5.07741886 11.8298744,6.56156338 C11.8214869,6.56995089 11.8130699,6.57829096 11.8046237,6.58658358 Z" id="Rectangle-1" fill="#DD593E" sketch:type="MSShapeGroup"></path>
                <path d="M9.75069956,3.33932256 C11.1994959,3.33932256 12.083063,5.02293714 12.083063,3.57269342 C12.083063,2.1224497 10.9085815,0.946794874 9.45978509,0.946794874 C8.01098872,0.946794874 6.496129,1.76029407 7.81679786,2.82309297 C9.13746672,3.88589187 8.30190319,3.33932256 9.75069956,3.33932256 Z" id="Oval-3-Copy-2" fill="#FF7C61" sketch:type="MSShapeGroup"></path>
            </g>
            <rect id="Rectangle-28-Copy-2" fill="#ECECEC" sketch:type="MSShapeGroup" x="507" y="425" width="97.6875" height="71"></rect>
            <path d="M543,482 L543,460 L513,460 L513,486 L513,490 L576,490 L576,482 L543,482 Z" id="Rectangle-46-Copy-4" fill="#D8D8D8" sketch:type="MSShapeGroup"></path>
            <g id="Rectangle-1-+-Oval-3-Copy-11" sketch:type="MSLayerGroup" transform="translate(511.000000, 430.000000)">
                <path d="M11.8046237,6.58658358 L11.8060931,6.58805299 L6.43153037,11.9626157 L1.05159843,6.5826838 L1.055521,6.57876123 L1.055521,6.57876123 C-0.311409269,5.08609673 -0.273364117,2.76833031 1.17050469,1.3244615 C2.6139609,-0.11899471 4.93081536,-0.157430598 6.4235246,1.20830634 C6.43227762,1.19938207 6.44108356,1.19049031 6.44994242,1.18163145 C7.93408694,-0.302513068 10.3415626,-0.301311133 11.8271898,1.18431605 C13.3128169,2.66994323 13.3140189,5.07741886 11.8298744,6.56156338 C11.8214869,6.56995089 11.8130699,6.57829096 11.8046237,6.58658358 Z" id="Rectangle-1" fill="#DD593E" sketch:type="MSShapeGroup"></path>
                <path d="M9.75069956,3.33932256 C11.1994959,3.33932256 12.083063,5.02293714 12.083063,3.57269342 C12.083063,2.1224497 10.9085815,0.946794874 9.45978509,0.946794874 C8.01098872,0.946794874 6.496129,1.76029407 7.81679786,2.82309297 C9.13746672,3.88589187 8.30190319,3.33932256 9.75069956,3.33932256 Z" id="Oval-3-Copy-2" fill="#FF7C61" sketch:type="MSShapeGroup"></path>
            </g>
            <g id="Rectangle-1-+-Oval-3-Copy-9" sketch:type="MSLayerGroup" transform="translate(527.000000, 430.000000)">
                <path d="M11.8046237,6.58658358 L11.8060931,6.58805299 L6.43153037,11.9626157 L1.05159843,6.5826838 L1.055521,6.57876123 L1.055521,6.57876123 C-0.311409269,5.08609673 -0.273364117,2.76833031 1.17050469,1.3244615 C2.6139609,-0.11899471 4.93081536,-0.157430598 6.4235246,1.20830634 C6.43227762,1.19938207 6.44108356,1.19049031 6.44994242,1.18163145 C7.93408694,-0.302513068 10.3415626,-0.301311133 11.8271898,1.18431605 C13.3128169,2.66994323 13.3140189,5.07741886 11.8298744,6.56156338 C11.8214869,6.56995089 11.8130699,6.57829096 11.8046237,6.58658358 Z" id="Rectangle-1" fill="#DD593E" sketch:type="MSShapeGroup"></path>
                <path d="M9.75069956,3.33932256 C11.1994959,3.33932256 12.083063,5.02293714 12.083063,3.57269342 C12.083063,2.1224497 10.9085815,0.946794874 9.45978509,0.946794874 C8.01098872,0.946794874 6.496129,1.76029407 7.81679786,2.82309297 C9.13746672,3.88589187 8.30190319,3.33932256 9.75069956,3.33932256 Z" id="Oval-3-Copy-2" fill="#FF7C61" sketch:type="MSShapeGroup"></path>
            </g>
            <g id="Rectangle-1-+-Oval-3-Copy-10" sketch:type="MSLayerGroup" transform="translate(543.000000, 430.000000)">
                <path d="M11.8046237,6.58658358 L11.8060931,6.58805299 L6.43153037,11.9626157 L1.05159843,6.5826838 L1.055521,6.57876123 L1.055521,6.57876123 C-0.311409269,5.08609673 -0.273364117,2.76833031 1.17050469,1.3244615 C2.6139609,-0.11899471 4.93081536,-0.157430598 6.4235246,1.20830634 C6.43227762,1.19938207 6.44108356,1.19049031 6.44994242,1.18163145 C7.93408694,-0.302513068 10.3415626,-0.301311133 11.8271898,1.18431605 C13.3128169,2.66994323 13.3140189,5.07741886 11.8298744,6.56156338 C11.8214869,6.56995089 11.8130699,6.57829096 11.8046237,6.58658358 Z" id="Rectangle-1" fill="#DD593E" sketch:type="MSShapeGroup"></path>
                <path d="M9.75069956,3.33932256 C11.1994959,3.33932256 12.083063,5.02293714 12.083063,3.57269342 C12.083063,2.1224497 10.9085815,0.946794874 9.45978509,0.946794874 C8.01098872,0.946794874 6.496129,1.76029407 7.81679786,2.82309297 C9.13746672,3.88589187 8.30190319,3.33932256 9.75069956,3.33932256 Z" id="Oval-3-Copy-2" fill="#FF7C61" sketch:type="MSShapeGroup"></path>
            </g>
            <g id="Rectangle-1-+-Oval-3-Copy-12" sketch:type="MSLayerGroup" transform="translate(559.000000, 430.000000)">
                <path d="M11.8046237,6.58658358 L11.8060931,6.58805299 L6.43153037,11.9626157 L1.05159843,6.5826838 L1.055521,6.57876123 L1.055521,6.57876123 C-0.311409269,5.08609673 -0.273364117,2.76833031 1.17050469,1.3244615 C2.6139609,-0.11899471 4.93081536,-0.157430598 6.4235246,1.20830634 C6.43227762,1.19938207 6.44108356,1.19049031 6.44994242,1.18163145 C7.93408694,-0.302513068 10.3415626,-0.301311133 11.8271898,1.18431605 C13.3128169,2.66994323 13.3140189,5.07741886 11.8298744,6.56156338 C11.8214869,6.56995089 11.8130699,6.57829096 11.8046237,6.58658358 Z" id="Rectangle-1" fill="#DD593E" sketch:type="MSShapeGroup"></path>
                <path d="M9.75069956,3.33932256 C11.1994959,3.33932256 12.083063,5.02293714 12.083063,3.57269342 C12.083063,2.1224497 10.9085815,0.946794874 9.45978509,0.946794874 C8.01098872,0.946794874 6.496129,1.76029407 7.81679786,2.82309297 C9.13746672,3.88589187 8.30190319,3.33932256 9.75069956,3.33932256 Z" id="Oval-3-Copy-2" fill="#FF7C61" sketch:type="MSShapeGroup"></path>
            </g>
            <g id="Rectangle-1-+-Oval-3-Copy-14" sketch:type="MSLayerGroup" transform="translate(511.000000, 430.000000)">
                <path d="M11.8046237,6.58658358 L11.8060931,6.58805299 L6.43153037,11.9626157 L1.05159843,6.5826838 L1.055521,6.57876123 L1.055521,6.57876123 C-0.311409269,5.08609673 -0.273364117,2.76833031 1.17050469,1.3244615 C2.6139609,-0.11899471 4.93081536,-0.157430598 6.4235246,1.20830634 C6.43227762,1.19938207 6.44108356,1.19049031 6.44994242,1.18163145 C7.93408694,-0.302513068 10.3415626,-0.301311133 11.8271898,1.18431605 C13.3128169,2.66994323 13.3140189,5.07741886 11.8298744,6.56156338 C11.8214869,6.56995089 11.8130699,6.57829096 11.8046237,6.58658358 Z" id="Rectangle-1" fill="#DD593E" sketch:type="MSShapeGroup"></path>
                <path d="M9.75069956,3.33932256 C11.1994959,3.33932256 12.083063,5.02293714 12.083063,3.57269342 C12.083063,2.1224497 10.9085815,0.946794874 9.45978509,0.946794874 C8.01098872,0.946794874 6.496129,1.76029407 7.81679786,2.82309297 C9.13746672,3.88589187 8.30190319,3.33932256 9.75069956,3.33932256 Z" id="Oval-3-Copy-2" fill="#FF7C61" sketch:type="MSShapeGroup"></path>
            </g>
            <g id="Rectangle-1-+-Oval-3-Copy-13" sketch:type="MSLayerGroup" transform="translate(559.000000, 430.000000)">
                <path d="M11.8046237,6.58658358 L11.8060931,6.58805299 L6.43153037,11.9626157 L1.05159843,6.5826838 L1.055521,6.57876123 L1.055521,6.57876123 C-0.311409269,5.08609673 -0.273364117,2.76833031 1.17050469,1.3244615 C2.6139609,-0.11899471 4.93081536,-0.157430598 6.4235246,1.20830634 C6.43227762,1.19938207 6.44108356,1.19049031 6.44994242,1.18163145 C7.93408694,-0.302513068 10.3415626,-0.301311133 11.8271898,1.18431605 C13.3128169,2.66994323 13.3140189,5.07741886 11.8298744,6.56156338 C11.8214869,6.56995089 11.8130699,6.57829096 11.8046237,6.58658358 Z" id="Rectangle-1" fill="#DD593E" sketch:type="MSShapeGroup"></path>
                <path d="M9.75069956,3.33932256 C11.1994959,3.33932256 12.083063,5.02293714 12.083063,3.57269342 C12.083063,2.1224497 10.9085815,0.946794874 9.45978509,0.946794874 C8.01098872,0.946794874 6.496129,1.76029407 7.81679786,2.82309297 C9.13746672,3.88589187 8.30190319,3.33932256 9.75069956,3.33932256 Z" id="Oval-3-Copy-2" fill="#FF7C61" sketch:type="MSShapeGroup"></path>
            </g>
            <g id="Rectangle-28-Copy-4-+-Rectangle-46-Copy-3" sketch:type="MSLayerGroup" transform="translate(627.000000, 425.000000)">
                <rect id="Rectangle-28-Copy-4" fill="#ECECEC" sketch:type="MSShapeGroup" x="0" y="0" width="97.6875" height="71"></rect>
                <path d="M77,65 L92,65 L92,35 L62,35 L62,57 L6,57 L6,65 L77,65 Z" id="Rectangle-46-Copy-3" fill="#D8D8D8" sketch:type="MSShapeGroup"></path>
            </g>
            <g id="Rectangle-1-+-Oval-3-Copy-18" sketch:type="MSLayerGroup" transform="translate(647.000000, 430.000000)">
                <path d="M11.8046237,6.58658358 L11.8060931,6.58805299 L6.43153037,11.9626157 L1.05159843,6.5826838 L1.055521,6.57876123 L1.055521,6.57876123 C-0.311409269,5.08609673 -0.273364117,2.76833031 1.17050469,1.3244615 C2.6139609,-0.11899471 4.93081536,-0.157430598 6.4235246,1.20830634 C6.43227762,1.19938207 6.44108356,1.19049031 6.44994242,1.18163145 C7.93408694,-0.302513068 10.3415626,-0.301311133 11.8271898,1.18431605 C13.3128169,2.66994323 13.3140189,5.07741886 11.8298744,6.56156338 C11.8214869,6.56995089 11.8130699,6.57829096 11.8046237,6.58658358 Z" id="Rectangle-1" fill="#DD593E" sketch:type="MSShapeGroup"></path>
                <path d="M9.75069956,3.33932256 C11.1994959,3.33932256 12.083063,5.02293714 12.083063,3.57269342 C12.083063,2.1224497 10.9085815,0.946794874 9.45978509,0.946794874 C8.01098872,0.946794874 6.496129,1.76029407 7.81679786,2.82309297 C9.13746672,3.88589187 8.30190319,3.33932256 9.75069956,3.33932256 Z" id="Oval-3-Copy-2" fill="#FF7C61" sketch:type="MSShapeGroup"></path>
            </g>
            <g id="Rectangle-1-+-Oval-3-Copy-15" sketch:type="MSLayerGroup" transform="translate(663.000000, 430.000000)">
                <path d="M11.8046237,6.58658358 L11.8060931,6.58805299 L6.43153037,11.9626157 L1.05159843,6.5826838 L1.055521,6.57876123 L1.055521,6.57876123 C-0.311409269,5.08609673 -0.273364117,2.76833031 1.17050469,1.3244615 C2.6139609,-0.11899471 4.93081536,-0.157430598 6.4235246,1.20830634 C6.43227762,1.19938207 6.44108356,1.19049031 6.44994242,1.18163145 C7.93408694,-0.302513068 10.3415626,-0.301311133 11.8271898,1.18431605 C13.3128169,2.66994323 13.3140189,5.07741886 11.8298744,6.56156338 C11.8214869,6.56995089 11.8130699,6.57829096 11.8046237,6.58658358 Z" id="Rectangle-1" fill="#DD593E" sketch:type="MSShapeGroup"></path>
                <path d="M9.75069956,3.33932256 C11.1994959,3.33932256 12.083063,5.02293714 12.083063,3.57269342 C12.083063,2.1224497 10.9085815,0.946794874 9.45978509,0.946794874 C8.01098872,0.946794874 6.496129,1.76029407 7.81679786,2.82309297 C9.13746672,3.88589187 8.30190319,3.33932256 9.75069956,3.33932256 Z" id="Oval-3-Copy-2" fill="#FF7C61" sketch:type="MSShapeGroup"></path>
            </g>
            <g id="Rectangle-1-+-Oval-3-Copy-16" sketch:type="MSLayerGroup" transform="translate(631.000000, 430.000000)">
                <path d="M11.8046237,6.58658358 L11.8060931,6.58805299 L6.43153037,11.9626157 L1.05159843,6.5826838 L1.055521,6.57876123 L1.055521,6.57876123 C-0.311409269,5.08609673 -0.273364117,2.76833031 1.17050469,1.3244615 C2.6139609,-0.11899471 4.93081536,-0.157430598 6.4235246,1.20830634 C6.43227762,1.19938207 6.44108356,1.19049031 6.44994242,1.18163145 C7.93408694,-0.302513068 10.3415626,-0.301311133 11.8271898,1.18431605 C13.3128169,2.66994323 13.3140189,5.07741886 11.8298744,6.56156338 C11.8214869,6.56995089 11.8130699,6.57829096 11.8046237,6.58658358 Z" id="Rectangle-1" fill="#DD593E" sketch:type="MSShapeGroup"></path>
                <path d="M9.75069956,3.33932256 C11.1994959,3.33932256 12.083063,5.02293714 12.083063,3.57269342 C12.083063,2.1224497 10.9085815,0.946794874 9.45978509,0.946794874 C8.01098872,0.946794874 6.496129,1.76029407 7.81679786,2.82309297 C9.13746672,3.88589187 8.30190319,3.33932256 9.75069956,3.33932256 Z" id="Oval-3-Copy-2" fill="#FF7C61" sketch:type="MSShapeGroup"></path>
            </g>
            <g id="Rectangle-1-+-Oval-3-Copy-17" sketch:type="MSLayerGroup" transform="translate(679.000000, 430.000000)">
                <path d="M11.8046237,6.58658358 L11.8060931,6.58805299 L6.43153037,11.9626157 L1.05159843,6.5826838 L1.055521,6.57876123 L1.055521,6.57876123 C-0.311409269,5.08609673 -0.273364117,2.76833031 1.17050469,1.3244615 C2.6139609,-0.11899471 4.93081536,-0.157430598 6.4235246,1.20830634 C6.43227762,1.19938207 6.44108356,1.19049031 6.44994242,1.18163145 C7.93408694,-0.302513068 10.3415626,-0.301311133 11.8271898,1.18431605 C13.3128169,2.66994323 13.3140189,5.07741886 11.8298744,6.56156338 C11.8214869,6.56995089 11.8130699,6.57829096 11.8046237,6.58658358 Z" id="Rectangle-1" fill="#DD593E" sketch:type="MSShapeGroup"></path>
                <path d="M9.75069956,3.33932256 C11.1994959,3.33932256 12.083063,5.02293714 12.083063,3.57269342 C12.083063,2.1224497 10.9085815,0.946794874 9.45978509,0.946794874 C8.01098872,0.946794874 6.496129,1.76029407 7.81679786,2.82309297 C9.13746672,3.88589187 8.30190319,3.33932256 9.75069956,3.33932256 Z" id="Oval-3-Copy-2" fill="#FF7C61" sketch:type="MSShapeGroup"></path>
            </g>
            <rect id="Rectangle-28-Copy-3" fill="#ECECEC" sketch:type="MSShapeGroup" x="627" y="331" width="97.6875" height="71"></rect>
            <rect id="Rectangle-36" fill="#D8D8D8" sketch:type="MSShapeGroup" x="610.5" y="54" width="162" height="38" rx="8"></rect>
            <rect id="Rectangle-36-Copy" fill="#D8D8D8" sketch:type="MSShapeGroup" x="610.5" y="105" width="162" height="38" rx="8"></rect>
            <path d="M582,307 L597,307 L597,277 L567,277 L567,299 L511,299 L511,307 L582,307 Z" id="Rectangle-46" fill="#D8D8D8" sketch:type="MSShapeGroup"></path>
            <path d="M679,300 L679,277 L649,277 L649,300 L633,300 L633,308 L719,308 L719,300 L679,300 Z" id="Rectangle-46-Copy" fill="#D8D8D8" sketch:type="MSShapeGroup"></path>
            <path d="M705,388 L705,366 L675,366 L675,388 L633,388 L633,396 L719,396 L719,388 L705,388 Z" id="Rectangle-46-Copy-2" fill="#D8D8D8" sketch:type="MSShapeGroup"></path>
            <path d="M572,396 L598,396 L598,366 L568,366 L568,388 L513,388 L513,396 L572,396 Z" id="Rectangle-46-Copy-5" fill="#D8D8D8" sketch:type="MSShapeGroup"></path>
            <circle id="Oval-88" stroke="#AAAAAA" stroke-width="12" fill="#ECECEC" sketch:type="MSShapeGroup" cx="526.5" cy="618.5" r="23.5"></circle>
            <rect id="Rectangle-36-Copy-3" fill="#95D34E" sketch:type="MSShapeGroup" x="539" y="664" width="190" height="38" rx="8"></rect>
            <circle id="Oval-88-Copy" stroke="#AAAAAA" stroke-width="12" fill="#ECECEC" sketch:type="MSShapeGroup" cx="526.5" cy="682.5" r="23.5"></circle>
        </g>
    </g>
</svg>